<?xml version="1.0" encoding="UTF-8" standalone="no"?>
<svg
   width="252pt"
   height="44pt"
   viewBox="0 0 252 44"
   version="1.1"
   id="svg19"
   sodipodi:docname="Blackbox.svg"
   inkscape:version="1.1.2 (0a00cf5339, 2022-02-04, custom)"
   xmlns:inkscape="http://www.inkscape.org/namespaces/inkscape"
   xmlns:sodipodi="http://sodipodi.sourceforge.net/DTD/sodipodi-0.dtd"
   xmlns="http://www.w3.org/2000/svg"
   xmlns:svg="http://www.w3.org/2000/svg">
  <defs
     id="defs23" />
  <sodipodi:namedview
     id="namedview21"
     pagecolor="#ffffff"
     bordercolor="#666666"
     borderopacity="1.0"
     inkscape:pageshadow="2"
     inkscape:pageopacity="0.0"
     inkscape:pagecheckerboard="0"
     inkscape:document-units="pt"
     showgrid="false"
     inkscape:zoom="4.5089286"
     inkscape:cx="185.4099"
     inkscape:cy="29.386138"
     inkscape:window-width="1920"
     inkscape:window-height="1052"
     inkscape:window-x="0"
     inkscape:window-y="28"
     inkscape:window-maximized="1"
     inkscape:current-layer="graph0" />
  <g
     id="graph0"
     class="graph"
     transform="translate(4, 40)">
    <polygon
       style="fill: black; stroke: black;"
       points="156.753,-36 77.2469,-36 77.2469,-1.06581e-14 156.753,-0 156.753,-36"
       id="polygon2" />
    <text
       text-anchor="middle"
       x="117"
       y="-23.125"
       style="font-family:Verdana;fill:#ffffff"
       id="text4"><tspan
         sodipodi:role="line"
         id="tspan1372"
         x="117"
         y="-23.125">Чёрный</tspan><tspan
         sodipodi:role="line"
         id="tspan1374"
         x="117"
         y="-8.125">ящик</tspan></text>
    <path
       style="fill: none; stroke: black;"
       d="M158,-18C183,-18 215,-18 232,-18"
       id="path6" />
    <polygon
       style="fill: black; stroke: black;"
       points="232,-21.5001 242,-18 232,-14.5001 232,-21.5001"
       id="polygon8" />
    <text
       text-anchor="middle"
       x="200"
       y="-20.625"
       style="font-family:Verdana"
       id="text10">Выход</text>
    <path
       style="fill: none; stroke: black;"
       d="M2,-18C7,-18 38,-18 67,-18"
       id="path12" />
    <polygon
       style="fill: black; stroke: black;"
       points="67,-21.5001 77,-18 67,-14.5001 67,-21.5001"
       id="polygon14" />
    <text
       text-anchor="middle"
       x="39"
       y="-20.625"
       style="font-family:Verdana"
       id="text16">Вход</text>
    <path
       style="fill:none;stroke:#00c400;stroke-width:0.75px;stroke-linecap:butt;stroke-linejoin:miter;stroke-opacity:1"
       d="m 238.85082,-6.8544612 c -8.05831,4.9290015 -5.22802,5.7169785 -7.53313,4.5982065 -2.30512,-1.118772 -2.16826,-1.118772 -2.16826,-1.118772"
       id="path1076" />
  </g>
</svg>
