<?xml version="1.0" encoding="UTF-8" standalone="no"?>
<svg
   width="252pt"
   height="88pt"
   viewBox="0 0 252 88"
   version="1.1"
   id="svg19"
   sodipodi:docname="Blackbox.svg"
   inkscape:version="1.1.2 (0a00cf5339, 2022-02-04, custom)"
   xmlns:inkscape="http://www.inkscape.org/namespaces/inkscape"
   xmlns:sodipodi="http://sodipodi.sourceforge.net/DTD/sodipodi-0.dtd"
   xmlns="http://www.w3.org/2000/svg"
   xmlns:svg="http://www.w3.org/2000/svg">
  <defs
     id="defs23" />
  <sodipodi:namedview
     id="namedview21"
     pagecolor="#ffffff"
     bordercolor="#666666"
     borderopacity="1.0"
     inkscape:pageshadow="2"
     inkscape:pageopacity="0.0"
     inkscape:pagecheckerboard="0"
     inkscape:document-units="pt"
     showgrid="false"
     height="88pt"
     inkscape:zoom="2.3862497"
     inkscape:cx="148.34994"
     inkscape:cy="15.715036"
     inkscape:window-width="1920"
     inkscape:window-height="1052"
     inkscape:window-x="0"
     inkscape:window-y="28"
     inkscape:window-maximized="1"
     inkscape:current-layer="graph0" />
  <path
     style="fill:none;stroke:#000000;stroke-width:0.75px;stroke-linecap:butt;stroke-linejoin:miter;stroke-opacity:1"
     d="M 161.13733,64.190779 C 180.36961,45.897687 199.98623,51.795373 180.36961,45.897687 160.753,40 160.753,40 160.753,40"
     id="path9831" />
  <ellipse
     style="fill:none;stroke:#000000;stroke-width:0.833385"
     id="path862"
     cx="120.67546"
     cy="63.713219"
     rx="39.973106"
     ry="20.391489" />
  <g
     id="graph0"
     class="graph"
     transform="translate(4,40)">
    <polygon
       style="fill:#000000;stroke:#000000"
       points="77.2469,-36 77.2469,-1.06581e-14 156.753,0 156.753,-36 "
       id="polygon2" />
    <text
       text-anchor="middle"
       x="117"
       y="-21.625"
       style="font-family:Verdana;fill:#ffffff"
       id="text4"><tspan
         sodipodi:role="line"
         id="tspan12043"
         x="117"
         y="-21.625">Чёрный</tspan><tspan
         sodipodi:role="line"
         id="tspan12045"
         x="117"
         y="-6.625">ящик</tspan></text>
    <path
       style="fill:none;stroke:#000000"
       d="m 158,-18 c 25,0 57,0 74,0"
       id="path6" />
    <polygon
       style="fill:#000000;stroke:#000000"
       points="242,-18 232,-14.5001 232,-21.5001 "
       id="polygon8" />
    <text
       text-anchor="middle"
       x="200"
       y="-20.625"
       style="font-family:Verdana"
       id="text10">Выход</text>
    <path
       style="fill:none;stroke:#000000"
       d="m 2,-18 c 5,0 36,0 65,0"
       id="path12" />
    <polygon
       style="fill:#000000;stroke:#000000"
       points="77,-18 67,-14.5001 67,-21.5001 "
       id="polygon14" />
    <text
       text-anchor="middle"
       x="39"
       y="-20.625"
       style="font-family:Verdana"
       id="text16">Вход</text>
    <text
       text-anchor="middle"
       x="116.65771"
       y="18.175819"
       style="font-size:10px;font-family:Verdana"
       id="text16-6"><tspan
         sodipodi:role="line"
         id="tspan14039"
         x="116.65771"
         y="18.175819"
         style="font-size:10px">Скрытый</tspan><tspan
         sodipodi:role="line"
         x="116.65771"
         y="30.675819"
         id="tspan15285"
         style="font-size:10px">вход/выход</tspan></text>
    <path
       style="fill:none;stroke:#000000;stroke-width:0.75px;stroke-linecap:butt;stroke-linejoin:miter;stroke-opacity:1"
       d="m 57.096917,10.636588 c 2.726222,0.101896 5.153699,2.33787 7.805973,2.33787"
       id="path4606" />
    <path
       style="fill:none;stroke:#000000;stroke-width:0.75px;stroke-linecap:butt;stroke-linejoin:miter;stroke-opacity:1"
       d="m 57.096917,10.636588 c 0.594165,2.299906 1.097455,4.545569 1.097455,6.967676"
       id="path4608" />
    <path
       style="fill:none;stroke:#000000;stroke-width:0.75px;stroke-linecap:butt;stroke-linejoin:miter;stroke-opacity:1"
       d="m 171.483,9.319526 c -1.16834,1.527664 -0.16713,4.092148 -0.76572,5.672339 -0.0861,0.22725 -0.49368,0.0068 -0.72422,0.08365"
       id="path4612" />
    <path
       style="fill:none;stroke:#000000;stroke-width:0.75px;stroke-linecap:butt;stroke-linejoin:miter;stroke-opacity:1"
       d="m 169.99306,15.075515 c 0.6384,0.114832 1.26658,0.339529 1.91521,0.344496 2.74055,0.02098 5.82104,-1.046008 8.89101,-1.046008 0.6849,0 1.36981,0 2.05471,0 0.12102,0 0.46726,-0.06155 0.36306,0 -0.41711,0.246393 -1.33124,0.05569 -1.81581,0.05569"
       id="path4614" />
    <path
       style="fill:#ff0000;stroke:#fe0000;stroke-width:0.75px;stroke-linecap:butt;stroke-linejoin:miter;stroke-opacity:1"
       d="M 5.3464865,-36.309907 C 239.87296,42.64145 239.87296,42.966575 239.87296,42.966575"
       id="path16799" />
    <path
       style="fill:#ff0000;stroke:#fe0000;stroke-width:0.75px;stroke-linecap:butt;stroke-linejoin:miter;stroke-opacity:1"
       d="M 237.78539,-36.524612 C 3.2589167,42.426745 3.2589167,42.75187 3.2589167,42.75187"
       id="path16799-6" />
  </g>
  <path
     style="fill:none;stroke:#000000;stroke-width:0.75px;stroke-linecap:butt;stroke-linejoin:miter;stroke-opacity:1"
     d="m 80.838,63.765151 c 0,0 -30.560375,-12.253705 -15.075737,-18.009428 C 81.2469,40 81.2469,40 81.2469,40"
     id="path9833" />
</svg>
